PathFileType	4	(X/Y/Z)	 3.0Hz3min.trc
DataRate	CameraRate	NumFrames	NumMarkers	Units	OrigDataRate	OrigDataStartFrame	OrigNumFrames
200	200	9	43	m	200	501	1000
Frame#	Time	C7			LSH			RSH			MAN			RASI			LASI			HIPR			HIPL			RPSI			LPSI			COX			RTHI1			RTHI2			RTHI3			RTHI4			RLKN			RMKN			RSHA1			RSHA2			RSHA3			RSHA4			RLMAL			RMMAL			RHEEL			RMET5			RMET1			RTOE			LTHI1			LTHI2			LTHI3			LTHI4			LLKN			LMKN			LSHA1			LSHA2			LSHA3			LSHA4			LLMAL			LMMAL			LHEEL			LMET5			LMET1			LTOE			
		X1	Y1	Z1	X2	Y2	Z2	X3	Y3	Z3	X4	Y4	Z4	X5	Y5	Z5	X6	Y6	Z6	X7	Y7	Z7	X8	Y8	Z8	X9	Y9	Z9	X10	Y10	Z10	X11	Y11	Z11	X12	Y12	Z12	X13	Y13	Z13	X14	Y14	Z14	X15	Y15	Z15	X16	Y16	Z16	X17	Y17	Z17	X18	Y18	Z18	X19	Y19	Z19	X20	Y20	Z20	X21	Y21	Z21	X22	Y22	Z22	X23	Y23	Z23	X24	Y24	Z24	X25	Y25	Z25	X26	Y26	Z26	X27	Y27	Z27	X28	Y28	Z28	X29	Y29	Z29	X30	Y30	Z30	X31	Y31	Z31	X32	Y32	Z32	X33	Y33	Z33	X34	Y34	Z34	X35	Y35	Z35	X36	Y36	Z36	X37	Y37	Z37	X38	Y38	Z38	X39	Y39	Z39	X40	Y40	Z40	X41	Y41	Z41	X42	Y42	Z42	X43	Y43	Z43	
501	2.5050	-0.141699	1.442335	-0.516228	-0.105996	1.434899	-0.710029	-0.066737	1.407338	-0.337565	-0.020962	1.366828	-0.527284	-0.028732	0.946340	-0.428194	-0.037029	0.951824	-0.649446	-0.079440	0.990679	-0.389925	-0.105475	0.993148	-0.677603	-0.182478	0.993090	-0.468047	-0.183449	0.996810	-0.581830	-0.186252	0.996245	-0.526884	-0.117300	0.760118	-0.345126	-0.112639	0.698931	-0.343961	-0.041385	0.712444	-0.349936	-0.053301	0.770971	-0.351743	-0.079215	0.451321	-0.356342	-0.077721	0.434925	-0.454596	-0.214090	0.298793	-0.347086	-0.231598	0.261541	-0.358751	-0.174938	0.239958	-0.350087	-0.161009	0.277555	-0.342825	-0.248829	0.109280	-0.364809	-0.235976	0.119291	-0.446643	-0.307485	0.099620	-0.402806	-0.161064	0.029843	-0.344228	-0.113714	0.043287	-0.426116	-0.083668	0.032404	-0.427285	-0.128029	0.732303	-0.724503	-0.121148	0.673070	-0.728478	-0.049101	0.683956	-0.730067	-0.064660	0.743971	-0.726621	-0.078282	0.452684	-0.727287	-0.084198	0.437190	-0.624758	-0.201824	0.274073	-0.747833	-0.218077	0.237395	-0.740249	-0.159610	0.218243	-0.734566	-0.149504	0.260230	-0.742930	-0.225303	0.109184	-0.736091	-0.231576	0.112714	-0.657926	-0.288605	0.095646	-0.709798	-0.125026	0.034898	-0.740845	-0.097401	0.043680	-0.659423	-0.072282	0.035931	-0.661942	
502	2.5100	-0.141638	1.440627	-0.516225	-0.106379	1.432913	-0.710086	-0.066797	1.405322	-0.337508	-0.021021	1.364609	-0.527366	-0.028774	0.944183	-0.427915	-0.037132	0.949195	-0.649640	-0.080038	0.987951	-0.389454	-0.106049	0.989630	-0.678038	-0.182677	0.990960	-0.468272	-0.183535	0.994629	-0.581712	-0.186279	0.994269	-0.526958	-0.117710	0.758646	-0.345028	-0.112949	0.697468	-0.343820	-0.041691	0.711099	-0.349402	-0.053699	0.769595	-0.351297	-0.079255	0.449826	-0.356095	-0.077516	0.433541	-0.454263	-0.214286	0.297449	-0.347148	-0.231851	0.260246	-0.358887	-0.175221	0.238569	-0.350244	-0.161239	0.276111	-0.342921	-0.249378	0.108103	-0.365376	-0.236446	0.118248	-0.447130	-0.308054	0.098399	-0.403424	-0.161284	0.029749	-0.344255	-0.113774	0.043294	-0.426144	-0.083526	0.032343	-0.427179	-0.128609	0.730632	-0.724455	-0.121656	0.671410	-0.728543	-0.049613	0.682423	-0.730662	-0.065266	0.742406	-0.727036	-0.078392	0.451009	-0.727857	-0.083607	0.435445	-0.625366	-0.202419	0.272626	-0.747322	-0.218719	0.235992	-0.739578	-0.160256	0.216687	-0.734267	-0.150125	0.258676	-0.742766	-0.226134	0.107852	-0.735246	-0.231906	0.111565	-0.656949	-0.289301	0.094338	-0.708489	-0.125496	0.034792	-0.740759	-0.097419	0.043652	-0.659440	-0.072184	0.035915	-0.662206	
503	2.5150	-0.141586	1.439356	-0.516217	-0.106821	1.431373	-0.710148	-0.066895	1.403721	-0.337457	-0.021105	1.363001	-0.527473	-0.028769	0.942532	-0.427640	-0.037198	0.947078	-0.649858	-0.080602	0.985837	-0.389008	-0.106665	0.986667	-0.678420	-0.182788	0.989469	-0.468484	-0.183535	0.993118	-0.581612	-0.186230	0.992910	-0.527029	-0.118117	0.757607	-0.344983	-0.113280	0.696445	-0.343728	-0.042015	0.710157	-0.348936	-0.054090	0.768627	-0.350914	-0.079375	0.448763	-0.355941	-0.077274	0.432564	-0.454017	-0.214523	0.296478	-0.347418	-0.232101	0.259306	-0.359197	-0.175511	0.237579	-0.350462	-0.161503	0.275101	-0.343095	-0.249806	0.107259	-0.365975	-0.236704	0.117467	-0.447644	-0.308458	0.097493	-0.404169	-0.161480	0.029702	-0.344338	-0.113777	0.043297	-0.426183	-0.083371	0.032293	-0.427069	-0.129187	0.729479	-0.724342	-0.122178	0.670264	-0.728549	-0.050136	0.681391	-0.731193	-0.065878	0.741335	-0.727378	-0.078548	0.449831	-0.728274	-0.082871	0.434231	-0.625799	-0.203024	0.271636	-0.746635	-0.219331	0.235030	-0.738730	-0.160854	0.215623	-0.733912	-0.150746	0.257620	-0.742517	-0.226828	0.106906	-0.734304	-0.232036	0.110728	-0.655892	-0.289825	0.093375	-0.707029	-0.125935	0.034743	-0.740602	-0.097363	0.043629	-0.659452	-0.072039	0.035912	-0.662466	
504	2.5200	-0.141544	1.438533	-0.516208	-0.107332	1.430301	-0.710212	-0.067036	1.402573	-0.337406	-0.021208	1.361999	-0.527599	-0.028702	0.941420	-0.427398	-0.037215	0.945528	-0.650078	-0.081072	0.984389	-0.388618	-0.107263	0.984409	-0.678731	-0.182809	0.988587	-0.468644	-0.183463	0.992223	-0.581533	-0.186127	0.992121	-0.527088	-0.118489	0.757002	-0.344966	-0.113611	0.695852	-0.343684	-0.042333	0.709612	-0.348554	-0.054447	0.768068	-0.350592	-0.079584	0.448127	-0.355868	-0.077026	0.431983	-0.453850	-0.214798	0.295880	-0.347869	-0.232348	0.258734	-0.359653	-0.175811	0.236984	-0.350738	-0.161801	0.274489	-0.343332	-0.250117	0.106750	-0.366567	-0.236778	0.116925	-0.448172	-0.308704	0.096919	-0.404996	-0.161659	0.029698	-0.344469	-0.113742	0.043298	-0.426242	-0.083211	0.032255	-0.426964	-0.129746	0.728804	-0.724169	-0.122689	0.669598	-0.728489	-0.050651	0.680830	-0.731654	-0.066473	0.740725	-0.727641	-0.078765	0.449151	-0.728539	-0.081997	0.433562	-0.626058	-0.203602	0.271081	-0.745825	-0.219888	0.234478	-0.737762	-0.161377	0.215005	-0.733491	-0.151329	0.257015	-0.742184	-0.227376	0.106350	-0.733318	-0.231974	0.110207	-0.654798	-0.290170	0.092751	-0.705472	-0.126340	0.034735	-0.740396	-0.097254	0.043602	-0.659460	-0.071873	0.035919	-0.662719	
505	2.5250	-0.141524	1.438174	-0.516204	-0.107897	1.429727	-0.710276	-0.067216	1.401906	-0.337361	-0.021322	1.361572	-0.527736	-0.028564	0.940858	-0.427214	-0.037163	0.944595	-0.650265	-0.081376	0.983637	-0.388316	-0.107760	0.982956	-0.678963	-0.182744	0.988273	-0.468744	-0.183335	0.991893	-0.581490	-0.185983	0.991836	-0.527122	-0.118812	0.756823	-0.344980	-0.113920	0.695681	-0.343682	-0.042627	0.709457	-0.348266	-0.054754	0.767904	-0.350349	-0.079870	0.447918	-0.355862	-0.076816	0.431796	-0.453763	-0.215105	0.295654	-0.348450	-0.232591	0.258524	-0.360209	-0.176116	0.236789	-0.351058	-0.162129	0.274287	-0.343612	-0.250313	0.106546	-0.367137	-0.236695	0.116631	-0.448676	-0.308789	0.096675	-0.405848	-0.161815	0.029738	-0.344644	-0.113674	0.043294	-0.426308	-0.083039	0.032223	-0.426864	-0.130269	0.728569	-0.723954	-0.123176	0.669372	-0.728362	-0.051137	0.680697	-0.732032	-0.067032	0.740542	-0.727828	-0.079054	0.448944	-0.728660	-0.081046	0.433411	-0.626163	-0.204128	0.270928	-0.744942	-0.220363	0.234297	-0.736734	-0.161810	0.214794	-0.732997	-0.151848	0.256832	-0.741775	-0.227761	0.106170	-0.732344	-0.231761	0.110012	-0.653722	-0.290347	0.092510	-0.703928	-0.126684	0.034759	-0.740155	-0.097071	0.043598	-0.659437	-0.071672	0.035935	-0.662930	
506	2.5300	-0.141539	1.438266	-0.516207	-0.108495	1.429669	-0.710333	-0.067431	1.401757	-0.337328	-0.021438	1.361681	-0.527882	-0.028349	0.940839	-0.427104	-0.037031	0.944292	-0.650387	-0.081467	0.983572	-0.388122	-0.108051	0.982380	-0.679101	-0.182594	0.988486	-0.468771	-0.183160	0.992066	-0.581482	-0.185804	0.992011	-0.527126	-0.119074	0.757058	-0.345018	-0.114192	0.695923	-0.343713	-0.042879	0.709684	-0.348074	-0.054996	0.768126	-0.350183	-0.080231	0.448126	-0.355924	-0.076685	0.432006	-0.453758	-0.215443	0.295787	-0.349128	-0.232822	0.258649	-0.360827	-0.176409	0.236975	-0.351404	-0.162470	0.274497	-0.343924	-0.250392	0.106646	-0.367656	-0.236474	0.116603	-0.449151	-0.308717	0.096763	-0.406662	-0.161936	0.029807	-0.344846	-0.113575	0.043282	-0.426380	-0.082860	0.032191	-0.426780	-0.130733	0.728759	-0.723708	-0.123621	0.669573	-0.728179	-0.051583	0.680961	-0.732316	-0.067533	0.740759	-0.727938	-0.079421	0.449175	-0.728650	-0.080153	0.433718	-0.626136	-0.204581	0.271124	-0.744045	-0.220745	0.234455	-0.735707	-0.162145	0.214975	-0.732467	-0.152280	0.257044	-0.741321	-0.227981	0.106334	-0.731420	-0.231416	0.110132	-0.652723	-0.290363	0.092635	-0.702484	-0.126959	0.034824	-0.739895	-0.096852	0.043590	-0.659409	-0.071462	0.035945	-0.663101	
507	2.5350	-0.141602	1.438800	-0.516221	-0.109104	1.430128	-0.710379	-0.067670	1.402132	-0.337306	-0.021549	1.362288	-0.528032	-0.028051	0.941343	-0.427071	-0.036805	0.944624	-0.650421	-0.081317	0.984161	-0.388039	-0.108071	0.982697	-0.679151	-0.182361	0.989186	-0.468727	-0.182934	0.992704	-0.581493	-0.185585	0.992620	-0.527099	-0.119255	0.757703	-0.345071	-0.114412	0.696574	-0.343773	-0.043079	0.710283	-0.347977	-0.055155	0.768731	-0.350087	-0.080665	0.448744	-0.356046	-0.076665	0.432620	-0.453840	-0.215781	0.296263	-0.349816	-0.233035	0.259110	-0.361466	-0.176668	0.237520	-0.351764	-0.162805	0.275077	-0.344257	-0.250355	0.107054	-0.368096	-0.236109	0.116862	-0.449570	-0.308486	0.097172	-0.407397	-0.162021	0.029910	-0.345069	-0.113430	0.043266	-0.426452	-0.082675	0.032164	-0.426712	-0.131131	0.729366	-0.723438	-0.124018	0.670192	-0.727949	-0.051980	0.681609	-0.732495	-0.067957	0.741371	-0.727984	-0.079862	0.449815	-0.728525	-0.079452	0.434439	-0.625997	-0.204948	0.271653	-0.743179	-0.221024	0.234931	-0.734731	-0.162361	0.215529	-0.731943	-0.152620	0.257614	-0.740842	-0.228040	0.106823	-0.730591	-0.230963	0.110542	-0.651840	-0.290222	0.093113	-0.701198	-0.127165	0.034902	-0.739617	-0.096617	0.043573	-0.659382	-0.071256	0.035956	-0.663239	
508	2.5400	-0.141718	1.439764	-0.516242	-0.109708	1.431091	-0.710411	-0.067927	1.403031	-0.337292	-0.021656	1.363366	-0.528186	-0.027680	0.942343	-0.427104	-0.036489	0.945555	-0.650355	-0.080930	0.985364	-0.388061	-0.107784	0.983876	-0.679111	-0.182038	0.990344	-0.468613	-0.182651	0.993794	-0.581516	-0.185320	0.993659	-0.527047	-0.119340	0.758763	-0.345122	-0.114568	0.697613	-0.343860	-0.043218	0.711243	-0.347966	-0.055223	0.769713	-0.350052	-0.081169	0.449755	-0.356239	-0.076787	0.433630	-0.454008	-0.216108	0.297084	-0.350478	-0.233219	0.259891	-0.362077	-0.176881	0.238412	-0.352122	-0.163118	0.276010	-0.344592	-0.250192	0.107777	-0.368444	-0.235613	0.117391	-0.449906	-0.308100	0.097893	-0.408025	-0.162050	0.030053	-0.345305	-0.113246	0.043230	-0.426507	-0.082488	0.032132	-0.426674	-0.131456	0.730388	-0.723154	-0.124365	0.671214	-0.727672	-0.052323	0.682626	-0.732560	-0.068293	0.742372	-0.727964	-0.080371	0.450840	-0.728301	-0.079033	0.435530	-0.625757	-0.205233	0.272503	-0.742386	-0.221206	0.235719	-0.733845	-0.162478	0.216412	-0.731431	-0.152870	0.258526	-0.740367	-0.227941	0.107616	-0.729905	-0.230416	0.111240	-0.651115	-0.289926	0.093929	-0.700115	-0.127296	0.034995	-0.739335	-0.096388	0.043544	-0.659350	-0.071070	0.035954	-0.663327	
509	2.5450	-0.141889	1.441138	-0.516269	-0.110287	1.432553	-0.710424	-0.068176	1.404416	-0.337329	-0.021758	1.364887	-0.528343	-0.027245	0.943803	-0.427185	-0.036085	0.947047	-0.650193	-0.080330	0.987127	-0.388178	-0.107199	0.985818	-0.678981	-0.181625	0.991939	-0.468449	-0.182305	0.995327	-0.581549	-0.184997	0.995107	-0.526974	-0.119337	0.760208	-0.345185	-0.114665	0.699046	-0.343966	-0.043293	0.712554	-0.348039	-0.055201	0.771052	-0.350084	-0.081752	0.451156	-0.356493	-0.077068	0.435029	-0.454250	-0.216432	0.298236	-0.351059	-0.233384	0.260965	-0.362633	-0.177041	0.239655	-0.352455	-0.163401	0.277297	-0.344911	-0.249900	0.108784	-0.368697	-0.234992	0.118196	-0.450134	-0.307560	0.098917	-0.408522	-0.162025	0.030216	-0.345538	-0.113026	0.043181	-0.426551	-0.082316	0.032098	-0.426656	-0.131701	0.731815	-0.722865	-0.124662	0.672637	-0.727358	-0.052616	0.683994	-0.732511	-0.068537	0.743751	-0.727883	-0.080942	0.452241	-0.727993	-0.078938	0.436970	-0.625434	-0.205446	0.273652	-0.741685	-0.221298	0.236808	-0.733078	-0.162507	0.217630	-0.730973	-0.153043	0.259789	-0.739932	-0.227686	0.108693	-0.729370	-0.229792	0.112206	-0.650566	-0.289489	0.095106	-0.699300	-0.127354	0.035099	-0.739058	-0.096167	0.043508	-0.659322	-0.070904	0.035945	-0.663361	
